<svg width="18" height="18" viewBox="0 0 18 18" fill="none" xmlns="http://www.w3.org/2000/svg">
<g id="arrow.up 1">
<g id="Group">
<path id="Vector" d="M9.00171 16.0855C9.38257 16.0855 9.65356 15.8218 9.65356 15.4409V5.79492L9.58032 3.61231L9.16284 3.75879L11.7922 6.63721L13.4622 8.27783C13.5794 8.39502 13.7478 8.45361 13.9236 8.45361C14.2898 8.45361 14.5535 8.17529 14.5535 7.81641C14.5535 7.64062 14.4949 7.48681 14.3557 7.34033L9.49243 2.46973C9.35327 2.32324 9.18481 2.25 9.00171 2.25C8.8186 2.25 8.65014 2.32324 8.51099 2.46973L3.65503 7.34033C3.51587 7.48681 3.44995 7.64062 3.44995 7.81641C3.44995 8.17529 3.71362 8.45361 4.07983 8.45361C4.25562 8.45361 4.43139 8.39502 4.54126 8.27783L6.21118 6.63721L8.83325 3.75879L8.4231 3.61231L8.34985 5.79492V15.4409C8.34985 15.8218 8.62085 16.0855 9.00171 16.0855Z" fill="white"/>
</g>
</g>
</svg>
