<svg width="18" height="18" viewBox="0 0 18 18" fill="none" xmlns="http://www.w3.org/2000/svg">
<g id="arrow.down 1">
<g id="Group">
<path id="Vector" d="M9.00171 1.91453C9.38257 1.91453 9.65356 2.17822 9.65356 2.55907V12.2051L9.58032 14.3877L9.16284 14.2412L11.7922 11.3628L13.4622 9.72217C13.5794 9.60498 13.7478 9.54639 13.9236 9.54639C14.2898 9.54639 14.5535 9.82471 14.5535 10.1836C14.5535 10.3594 14.4949 10.5132 14.3557 10.6597L9.49243 15.5303C9.35327 15.6768 9.18481 15.75 9.00171 15.75C8.8186 15.75 8.65014 15.6768 8.51099 15.5303L3.65503 10.6597C3.51587 10.5132 3.44995 10.3594 3.44995 10.1836C3.44995 9.82471 3.71362 9.54639 4.07983 9.54639C4.25562 9.54639 4.43139 9.60498 4.54126 9.72217L6.21118 11.3628L8.83325 14.2412L8.4231 14.3877L8.34985 12.2051V2.55907C8.34985 2.17822 8.62085 1.91453 9.00171 1.91453Z" fill="white"/>
</g>
</g>
</svg>
