<svg width="24" height="24" viewBox="0 0 24 24" fill="none" xmlns="http://www.w3.org/2000/svg">
<g id="Iconsax">
<path id="Vector" d="M12.75 15.92H13.4C14.05 15.92 14.59 15.34 14.59 14.64C14.59 13.77 14.28 13.6 13.77 13.42L12.76 13.07V15.92H12.75Z" fill="#F8D000"/>
<path id="Vector_2" d="M11.9699 1.898C6.44994 1.918 1.97994 6.408 1.99994 11.928C2.01994 17.448 6.50994 21.918 12.0299 21.898C17.5499 21.878 22.0199 17.388 21.9999 11.868C21.9799 6.348 17.4899 1.888 11.9699 1.898ZM14.2599 11.998C15.0399 12.268 16.0899 12.848 16.0899 14.638C16.0899 16.178 14.8799 17.418 13.3999 17.418H12.7499V17.998C12.7499 18.408 12.4099 18.748 11.9999 18.748C11.5899 18.748 11.2499 18.408 11.2499 17.998V17.418H10.8899C9.24995 17.418 7.91994 16.038 7.91994 14.338C7.91994 13.928 8.25994 13.588 8.66994 13.588C9.07994 13.588 9.41994 13.928 9.41994 14.338C9.41994 15.208 10.0799 15.918 10.8899 15.918H11.2499V12.538L9.73994 11.998C8.95994 11.728 7.90994 11.148 7.90994 9.358C7.90994 7.818 9.11995 6.578 10.5999 6.578H11.2499V5.998C11.2499 5.588 11.5899 5.248 11.9999 5.248C12.4099 5.248 12.7499 5.588 12.7499 5.998V6.578H13.1099C14.7499 6.578 16.0799 7.958 16.0799 9.658C16.0799 10.068 15.7399 10.408 15.3299 10.408C14.9199 10.408 14.5799 10.068 14.5799 9.658C14.5799 8.788 13.9199 8.078 13.1099 8.078H12.7499V11.458L14.2599 11.998Z" fill="#F8D000"/>
<path id="Vector_3" d="M9.422 9.368C9.422 10.238 9.732 10.408 10.242 10.588L11.252 10.938V8.078H10.602C9.952 8.078 9.422 8.658 9.422 9.368Z" fill="#F8D000"/>
</g>
</svg>
