<svg width="12" height="10" viewBox="0 0 12 10" fill="none" xmlns="http://www.w3.org/2000/svg">
<g id="camera.fill 1" clip-path="url(#clip0_28_4592)">
<g id="Group">
<path id="Vector" d="M1.5342 9.67529H10.4658C11.4821 9.67529 12 9.14764 12 8.10249V2.79046C12 1.74531 11.4821 1.22273 10.4658 1.22273H9.0684C8.6824 1.22273 8.56514 1.14155 8.34527 0.887874L7.95439 0.431254C7.7101 0.152207 7.46092 0 6.95765 0H5.00814C4.50489 0 4.25571 0.152207 4.0114 0.431254L3.62052 0.887874C3.40065 1.13648 3.27851 1.22273 2.89739 1.22273H1.5342C0.51303 1.22273 0 1.74531 0 2.79046V8.10249C0 9.14764 0.51303 9.67529 1.5342 9.67529ZM5.99999 8.17858C4.51955 8.17858 3.33225 6.95079 3.33225 5.40334C3.33225 3.86098 4.51955 2.63319 5.99999 2.63319C7.48045 2.63319 8.66287 3.86098 8.66287 5.40334C8.66287 6.95079 7.47557 8.17858 5.99999 8.17858ZM5.99999 7.40742C7.06514 7.40742 7.92508 6.51954 7.92508 5.40334C7.92508 4.29223 7.06514 3.39929 5.99999 3.39929C4.93486 3.39929 4.07002 4.29223 4.07002 5.40334C4.07002 6.51954 4.93974 7.40742 5.99999 7.40742ZM8.99023 3.53627C8.99023 3.19128 9.28338 2.88685 9.62541 2.88685C9.96255 2.88685 10.2508 3.19128 10.2508 3.53627C10.2508 3.8965 9.96255 4.18569 9.62541 4.19077C9.28338 4.19077 8.99023 3.90157 8.99023 3.53627Z" fill="#080809"/>
</g>
</g>
<defs>
<clipPath id="clip0_28_4592">
<rect width="12" height="10" fill="white"/>
</clipPath>
</defs>
</svg>
