<svg width="195" height="130" viewBox="0 0 195 130" fill="none" xmlns="http://www.w3.org/2000/svg">
<path d="M141.28 0H195L136.065 101.31C133.17 105.836 128.824 110.188 122.33 115.758C91.9036 137.232 66.8699 130.614 50.8965 120.632C67.1742 92.6065 101.92 32.9693 110.682 18.6257C119.444 4.28218 134.732 0.232096 141.28 0Z" fill="#FF5C00"/>
<path opacity="0.69" fill-rule="evenodd" clip-rule="evenodd" d="M72.4955 129.139C64.1506 127.645 56.8865 124.375 50.8965 120.632C59.0818 106.539 71.9369 84.4534 83.8098 64.1526C84.8013 65.6159 85.8195 67.2057 86.8644 68.9327C98.4082 88.011 109.175 105.43 113.116 111.754C114.793 114.049 118.83 117.973 121.984 116.001C114.83 121.007 107.974 124.461 101.467 126.686C90.8065 130.33 81.0793 130.674 72.4955 129.139ZM121.986 116C121.985 116 121.985 116.001 121.984 116.001C122.1 115.92 122.215 115.839 122.33 115.758C122.33 115.758 122.329 115.759 122.329 115.759C122.214 115.84 122.1 115.92 121.986 116Z" fill="#F8D000"/>
<path fill-rule="evenodd" clip-rule="evenodd" d="M61.8298 47.5218H0.28647C-0.235084 47.4637 -0.408936 48.7403 3.06809 54.3106C4.81323 57.1064 9.13703 64.5608 13.9799 72.9103C21.1983 85.3552 29.57 99.7884 32.2751 103.747C34.0484 106.342 40.5844 114.188 50.8963 120.632C55.8691 123.74 61.72 126.521 68.3383 128.231C61.72 126.521 55.8692 123.74 50.8965 120.632C59.0818 106.539 71.9369 84.4534 83.8098 64.1526C73.8476 49.4511 66.5733 47.5218 61.8298 47.5218ZM121.984 116.001C121.985 116.001 121.985 116.001 121.985 116.001C122.1 115.92 122.215 115.84 122.33 115.758C122.33 115.758 122.33 115.758 122.33 115.758C122.215 115.839 122.1 115.92 121.984 116.001ZM122.329 115.759C122.214 115.84 122.1 115.92 121.986 116C122.101 115.928 122.216 115.848 122.329 115.759Z" fill="#F8D000"/>
</svg>
