<svg width="24" height="24" viewBox="0 0 24 24" fill="none" xmlns="http://www.w3.org/2000/svg">
<path d="M9.27982 5.04799C9.45267 4.88353 9.68376 4.79442 9.92228 4.80027C10.1608 4.80612 10.3872 4.90645 10.5518 5.07919L16.553 11.3792C16.7126 11.5466 16.8016 11.7689 16.8016 12.0002C16.8016 12.2314 16.7126 12.4538 16.553 12.6212L10.553 18.9212C10.4715 19.0068 10.374 19.0756 10.266 19.1236C10.1579 19.1715 10.0415 19.1977 9.92331 19.2007C9.80514 19.2036 9.68754 19.1833 9.57723 19.1408C9.46693 19.0983 9.36607 19.0345 9.28042 18.953C9.19477 18.8715 9.12601 18.774 9.07806 18.6659C9.03011 18.5579 9.00391 18.4415 9.00096 18.3233C8.998 18.2051 9.01836 18.0875 9.06085 17.9772C9.10334 17.8669 9.16715 17.766 9.24862 17.6804L14.6594 11.9996L9.24742 6.31879C9.08311 6.14579 8.99422 5.91461 9.00029 5.67609C9.00637 5.43756 9.10691 5.21121 9.27982 5.04679V5.04799Z" fill="#7A7A7A"/>
</svg>
