<svg width="24" height="24" viewBox="0 0 24 24" fill="none" xmlns="http://www.w3.org/2000/svg">
<g id="Chevron Right/ undefined">
<path id="Vector" d="M18.952 9.27982C19.1164 9.45267 19.2055 9.68376 19.1997 9.92228C19.1938 10.1608 19.0935 10.3872 18.9208 10.5518L12.6208 16.553C12.4534 16.7126 12.231 16.8016 11.9998 16.8016C11.7685 16.8016 11.5461 16.7126 11.3788 16.553L5.07876 10.553C4.99311 10.4715 4.92435 10.374 4.8764 10.266C4.82845 10.1579 4.80225 10.0415 4.79929 9.92331C4.79634 9.80514 4.81669 9.68754 4.85919 9.57723C4.90168 9.46693 4.96549 9.36607 5.04696 9.28042C5.12843 9.19477 5.22598 9.12601 5.33402 9.07806C5.44207 9.03011 5.5585 9.00391 5.67667 9.00096C5.79485 8.998 5.91244 9.01836 6.02275 9.06085C6.13305 9.10334 6.23391 9.16715 6.31956 9.24862L12.0004 14.6594L17.6812 9.24742C17.8542 9.08311 18.0853 8.99422 18.3239 9.00029C18.5624 9.00637 18.7887 9.10691 18.9532 9.27982H18.952Z" fill="#7A7A7A"/>
</g>
</svg>
