<svg width="22" height="14" viewBox="0 0 22 14" fill="none" xmlns="http://www.w3.org/2000/svg">
<path id="Vector" d="M21.1538 1.82609H0.846154C0.38359 1.82609 0 1.41217 0 0.913044C0 0.413913 0.38359 0 0.846154 0H21.1538C21.6164 0 22 0.413913 22 0.913044C22 1.41217 21.6164 1.82609 21.1538 1.82609ZM21.1538 7.91304H0.846154C0.38359 7.91304 0 7.49913 0 7C0 6.50087 0.38359 6.08696 0.846154 6.08696H21.1538C21.6164 6.08696 22 6.50087 22 7C22 7.49913 21.6164 7.91304 21.1538 7.91304ZM21.1538 14H0.846154C0.38359 14 0 13.5861 0 13.087C0 12.5878 0.38359 12.1739 0.846154 12.1739H21.1538C21.6164 12.1739 22 12.5878 22 13.087C22 13.5861 21.6164 14 21.1538 14Z" fill="#F8D000"/>
</svg>
