<svg width="51" height="45" viewBox="0 0 51 45" fill="none" xmlns="http://www.w3.org/2000/svg">
<g id="chart.bar.xaxis 1" clip-path="url(#clip0_26_5106)">
<g id="Group">
<path id="Vector" d="M0.5 43.0655C0.5 44.1537 1.38687 45 2.41755 45H48.5585C49.6131 45 50.5 44.1537 50.5 43.0655C50.5 42.0016 49.6131 41.1311 48.5585 41.1311H2.41755C1.38687 41.1311 0.5 42.0016 0.5 43.0655Z" fill="#7A7A7A"/>
<path id="Vector_2" d="M2.41748 35.6179C2.41748 36.8753 3.20847 37.625 4.52678 37.625H9.7521C11.0225 37.625 11.8374 36.8753 11.8374 35.6179V15.6206C11.8374 14.3874 11.0225 13.5895 9.7521 13.5895H4.52678C3.20847 13.5895 2.41748 14.3874 2.41748 15.6206V35.6179Z" fill="#F8D000"/>
<path id="Vector_3" d="M14.6418 35.6179C14.6418 36.8754 15.4568 37.625 16.7511 37.625H21.9765C23.2708 37.625 24.0858 36.8754 24.0858 35.6179V5.15048C24.0858 3.89309 23.2708 3.14349 21.9765 3.14349H16.7511C15.4568 3.14349 14.6418 3.89309 14.6418 5.15048V35.6179Z" fill="#F8D000"/>
<path id="Vector_4" d="M26.8901 35.6179C26.8901 36.8753 27.6811 37.625 28.9755 37.625H34.2248C35.4952 37.625 36.31 36.8753 36.31 35.6179V10.3735C36.31 9.09188 35.4952 8.34229 34.2248 8.34229H28.9755C27.6811 8.34229 26.8901 9.09188 26.8901 10.3735V35.6179Z" fill="#F8D000"/>
<path id="Vector_5" d="M39.1145 35.6179C39.1145 36.8753 39.9055 37.625 41.2238 37.625H46.4491C47.7435 37.625 48.5584 36.8753 48.5584 35.6179V20.6985C48.5584 19.4412 47.7435 18.6674 46.4491 18.6674H41.2238C39.9055 18.6674 39.1145 19.4412 39.1145 20.6985V35.6179Z" fill="#F8D000"/>
</g>
</g>
<defs>
<clipPath id="clip0_26_5106">
<rect width="50" height="45" fill="white" transform="translate(0.5)"/>
</clipPath>
</defs>
</svg>
