<svg width="21" height="18" viewBox="0 0 21 18" fill="none" xmlns="http://www.w3.org/2000/svg">
<g id="Group">
<path id="Vector" d="M10.9288 3.82754C10.5349 3.82754 10.2126 4.13622 10.2126 4.52427V9.4454C10.2126 9.64824 10.2753 9.82461 10.4275 10.0187L12.6386 12.8937C12.9341 13.273 13.3458 13.3346 13.7129 13.0877C14.0441 12.8584 14.0709 12.4439 13.8024 12.0823L10.8214 8.12251L11.636 10.5919V4.52427C11.636 4.13622 11.3227 3.82754 10.9288 3.82754ZM11.269 17.9912C16.2552 17.9912 20.4 13.9079 20.4 8.99561C20.4 4.07448 16.2552 0 11.269 0C6.27376 0 2.13793 4.06566 2.13793 8.98679H3.65977C3.65977 4.82412 7.04363 1.50809 11.269 1.50809C15.4944 1.50809 18.8782 4.83293 18.8782 8.99561C18.8782 13.1583 15.4944 16.5095 11.269 16.4919C8.71766 16.4832 6.47966 15.2661 5.11 13.3876C4.83248 13.026 4.41174 12.9114 4.03575 13.1318C3.67768 13.3523 3.5792 13.8374 3.88357 14.2255C5.58445 16.4743 8.25215 17.9912 11.269 17.9912ZM1.03683 7.2935C0.39228 7.2935 0.231144 7.72564 0.580272 8.21951L2.58553 11.024C2.88095 11.4297 3.31064 11.4209 3.59711 11.024L5.60236 8.2107C5.94253 7.72564 5.7814 7.2935 5.1458 7.2935H1.03683Z" fill="#7A7A7A"/>
</g>
</svg>
