<svg width="18" height="18" viewBox="0 0 18 18" fill="none" xmlns="http://www.w3.org/2000/svg">
<g id="Group">
<path id="Vector" d="M0.00346375 8.1818V15.6755C0.00346375 16.2881 0.42598 16.6825 0.98402 16.6825C1.54207 16.6741 1.96458 16.2881 1.96458 15.6755V6.60419H1.57395C0.601365 6.60419 0.00346375 7.18321 0.00346375 8.1818ZM2.698 17.9916H15.3097C16.9839 17.9916 17.8129 17.1272 17.8129 15.3986V2.60139C17.8129 0.872722 16.9839 0 15.3097 0H6.02234C4.35618 0 3.51912 0.872722 3.51912 2.60139V16.2293C3.51912 17.1272 3.31982 17.6308 2.698 17.9916ZM6.7159 5.00139C6.4289 5.00139 6.21366 4.76643 6.21366 4.47272C6.21366 4.18741 6.4289 3.96922 6.7159 3.96922H14.6321C14.9111 3.96922 15.1264 4.18741 15.1264 4.47272C15.1264 4.76643 14.9111 5.00139 14.6321 5.00139H6.7159ZM6.7159 7.95523C6.4289 7.95523 6.21366 7.72866 6.21366 7.44335C6.21366 7.14964 6.4289 6.92307 6.7159 6.92307H14.6321C14.9111 6.92307 15.1264 7.14964 15.1264 7.44335C15.1264 7.72866 14.9111 7.95523 14.6321 7.95523H6.7159ZM11.6585 10.9175C11.3716 10.9175 11.1643 10.6993 11.1643 10.4139C11.1643 10.1119 11.3716 9.88529 11.6585 9.88529H14.6321C14.9111 9.88529 15.1184 10.1119 15.1184 10.4139C15.1184 10.6993 14.9111 10.9175 14.6321 10.9175H11.6585ZM11.6585 13.9384C11.3716 13.9384 11.1643 13.7203 11.1643 13.435C11.1643 13.1413 11.3716 12.9062 11.6585 12.9062H14.6321C14.9111 12.9062 15.1184 13.1413 15.1184 13.435C15.1184 13.7203 14.9111 13.9384 14.6321 13.9384H11.6585ZM7.14639 13.9804C6.55646 13.9804 6.20569 13.6111 6.20569 12.9986V10.8755C6.20569 10.2545 6.55646 9.88529 7.14639 9.88529H9.13939C9.72135 9.88529 10.0721 10.2545 10.0721 10.8755V12.9986C10.0721 13.6111 9.72135 13.9804 9.13939 13.9804H7.14639Z" fill="#7A7A7A"/>
</g>
</svg>
