<svg width="24" height="24" viewBox="0 0 24 24" fill="none" xmlns="http://www.w3.org/2000/svg">
<path d="M12 22C14.3529 22 16.6274 21.1565 18.4412 19.6165L11.3823 12.6915C11.1863 12.515 11.147 12.3482 11.147 12.0834V2.02943C6.05882 2.47082 2 6.81609 2 11.9951C2 17.4684 6.53921 22 12 22ZM22 11.9951C22 10.5238 21.6372 8.98381 21.0196 7.7283L13.0098 12.3384L19.4118 18.665C21.0196 16.9093 22 14.4963 22 11.9951ZM12.4607 11.1319L20.3725 6.58068C18.6667 3.90289 15.5784 2.12751 12.4607 2V11.1319Z" fill="#7A7A7A"/>
</svg>
