<svg width="24" height="24" viewBox="0 0 24 24" fill="none" xmlns="http://www.w3.org/2000/svg">
<g id="Component 1">
<path id="Vector" d="M16.19 22H7.81C4.17 22 2 19.83 2 16.19V7.82C2 4.17 4.17 2 7.81 2H16.18C19.82 2 21.99 4.17 21.99 7.81V16.19C22 19.83 19.83 22 16.19 22ZM16.82 13.18C16.53 12.89 16.05 12.89 15.76 13.18L12.75 16.19V6C12.75 5.59 12.41 5.25 12 5.25C11.59 5.25 11.25 5.59 11.25 6V16.19L8.24 13.18C7.95 12.89 7.47 12.89 7.18 13.18C7.10998 13.2493 7.05446 13.3319 7.01669 13.4229C6.97892 13.5139 6.95965 13.6115 6.96 13.71C6.96 13.9 7.04 14.1 7.18 14.24L11.47 18.53C11.6106 18.6705 11.8012 18.7493 12 18.7493C12.1988 18.7493 12.3894 18.6705 12.53 18.53L16.82 14.24C17.11 13.95 17.11 13.48 16.82 13.18Z" fill="#CB3131"/>
</g>
</svg>
