<svg width="24" height="24" viewBox="0 0 24 24" fill="none" xmlns="http://www.w3.org/2000/svg">
<path d="M5.09557 16.6465L5.09557 10.6602C5.09557 10.2695 5.33799 10.0352 5.7296 10.0352H7.28671C7.66899 10.0352 7.92073 10.2695 7.92073 10.6602L7.92073 16.6465C7.92073 17.0469 7.66899 17.2812 7.28671 17.2812H5.7296C5.33799 17.2812 5.09557 17.0469 5.09557 16.6465ZM8.75057 16.6465V7.4082C8.75057 7.0176 8.993 6.7832 9.38461 6.7832H10.9417C11.3333 6.7832 11.5757 7.0176 11.5757 7.4082L11.5757 16.6465C11.5757 17.0469 11.3333 17.2812 10.9417 17.2812H9.38461C8.993 17.2812 8.75057 17.0469 8.75057 16.6465ZM12.4243 16.6465V9.0195C12.4243 8.6289 12.6573 8.3945 13.0396 8.3945L14.606 8.3945C14.9977 8.3945 15.2307 8.6289 15.2307 9.0195V16.6465C15.2307 17.0469 14.9977 17.2812 14.606 17.2812H13.0396C12.6573 17.2812 12.4243 17.0469 12.4243 16.6465ZM16.0792 16.6465V12.2324C16.0792 11.8516 16.3217 11.6074 16.7133 11.6074H18.2704C18.6526 11.6074 18.9044 11.8516 18.9044 12.2324V16.6465C18.9044 17.0469 18.6526 17.2812 18.2704 17.2812H16.7133C16.3217 17.2812 16.0792 17.0469 16.0792 16.6465ZM19.0723 20.25C21.021 20.25 21.9906 19.2441 21.9906 17.2227V6.8516C21.9906 4.8301 21.021 3.8242 19.0723 3.8242H4.92774C2.98835 3.8242 2 4.8301 2 6.8516L2 17.2227C2 19.2441 2.98835 20.25 4.92774 20.25H19.0723Z" fill="#7A7A7A"/>
</svg>
