<svg width="24" height="24" viewBox="0 0 24 24" fill="none" xmlns="http://www.w3.org/2000/svg">
<g id="Iconsax">
<path id="Vector" d="M12 4.648C7.21996 4.648 3.32996 8.538 3.32996 13.318C3.32996 18.098 7.21996 21.998 12 21.998C16.78 21.998 20.67 18.108 20.67 13.328C20.67 8.548 16.78 4.648 12 4.648ZM12.75 12.998C12.75 13.408 12.41 13.748 12 13.748C11.59 13.748 11.25 13.408 11.25 12.998V7.998C11.25 7.588 11.59 7.248 12 7.248C12.41 7.248 12.75 7.588 12.75 7.998V12.998ZM14.89 3.45H9.10996C8.70996 3.45 8.38996 3.13 8.38996 2.73C8.38996 2.33 8.70996 2 9.10996 2H14.89C15.29 2 15.61 2.32 15.61 2.72C15.61 3.12 15.29 3.45 14.89 3.45Z" fill="#F8D000"/>
</g>
</svg>
